<?xml version="1.0" encoding="iso-8859-1"?>
<!-- Generator: Adobe Illustrator 16.0.0, SVG Export Plug-In . SVG Version: 6.00 Build 0)  -->
<!DOCTYPE svg PUBLIC "-//W3C//DTD SVG 1.1//EN" "http://www.w3.org/Graphics/SVG/1.1/DTD/svg11.dtd">
<svg version="1.1" id="Capa_1" xmlns="http://www.w3.org/2000/svg" xmlns:xlink="http://www.w3.org/1999/xlink" x="0px" y="0px"
	 width="582.32px" height="582.32px" viewBox="0 0 582.32 582.32" style="enable-background:new 0 0 582.32 582.32;"
	 xml:space="preserve">
<g>
	<path d="M0.041,241.431c2.448,47.736,55.08,85.68,88.74,113.22c48.348,38.557,94.248,72.217,152.388,95.473
		c9.792,3.672,16.524-6.732,15.3-15.3c-0.612-2.448-0.612-4.284-1.224-6.732c0.612-1.224,0.612-2.448,0.612-3.672
		c-2.448-29.376-3.06-59.364-3.672-88.74c55.692,2.448,111.997,5.508,167.077,1.836c12.239,58.141-11.628,117.504,5.508,175.032
		c-6.12,6.12-6.12,18.36,4.284,20.808c41.004,9.792,89.352,6.732,130.355,0.612c4.896-0.612,6.732-3.672,6.732-6.731
		c1.224-1.225,1.836-3.061,2.448-5.509c4.896-56.304,8.567-112.607,11.016-168.912c2.448-47.735,7.956-104.04-10.404-149.328
		c-2.447-5.508-7.956-7.344-12.852-6.12c-27.54-29.988-120.564-21.42-154.836-22.032c-48.96-0.612-98.532,0-147.493,1.224
		c0.612-39.168,0.612-77.724-0.612-116.892c0-4.896-3.06-8.568-6.732-10.404c-1.224-4.284-4.896-7.956-10.404-6.12
		c-56.304,17.136-105.264,69.156-152.388,104.04C58.181,166.155-1.795,201.651,0.041,241.431z"/>
</g>
<g>
</g>
<g>
</g>
<g>
</g>
<g>
</g>
<g>
</g>
<g>
</g>
<g>
</g>
<g>
</g>
<g>
</g>
<g>
</g>
<g>
</g>
<g>
</g>
<g>
</g>
<g>
</g>
<g>
</g>
</svg>
